<svg width="151" height="51" viewBox="0 0 151 51" fill="none" xmlns="http://www.w3.org/2000/svg">
<path d="M138.469 50.315C135.69 50.315 133.475 49.7939 131.824 48.7515C130.174 47.7092 128.993 46.2064 128.28 44.2433C127.568 42.2802 127.212 39.9175 127.212 37.1552V21.4416C127.212 17.8107 128.254 15.0658 130.339 13.207C132.424 11.3307 135.29 10.3926 138.938 10.3926C146.443 10.3926 150.196 14.0756 150.196 21.4416V24.2821C150.196 27.7219 150.161 30.0324 150.092 31.2138H136.541V38.7709C136.541 39.4658 136.584 40.152 136.671 40.8296C136.758 41.4897 136.949 42.037 137.245 42.4713C137.557 42.9056 138.052 43.1228 138.73 43.1228C139.703 43.1228 140.311 42.7058 140.554 41.8719C140.797 41.0207 140.919 39.9175 140.919 38.5624V34.8099H150.196V37.0249C150.196 39.9435 149.831 42.3931 149.102 44.3736C148.389 46.3367 147.173 47.8221 145.453 48.8297C143.751 49.8199 141.423 50.315 138.469 50.315ZM136.489 26.5753H140.919V21.3113C140.919 19.9041 140.745 18.8965 140.398 18.2885C140.05 17.6631 139.529 17.3503 138.834 17.3503C138.087 17.3503 137.505 17.6457 137.088 18.2364C136.689 18.827 136.489 19.852 136.489 21.3113V26.5753Z" fill="white"/>
<path d="M105.791 49.8977V44.1907L115.537 18.2099H106.26V10.8091H125.205V17.1675L116.006 42.9138H125.283V49.8977H105.791Z" fill="white"/>
<path d="M101.518 22.3833V49.142L87.7332 49.1473V38.6281L82.5606 49.2889H70.5752L65.5658 38.4167V49.2889L52.2468 49.0663V22.3833H101.518Z" fill="#6A0DAD"/>
<path d="M102.117 21.7852V49.74L87.1353 49.7459V41.2303L82.936 49.8873H70.1918L66.1642 41.1438V49.8978L51.6487 49.6547V21.7852H102.117ZM52.8452 48.4781L64.9677 48.6803V38.4167L66.1093 38.1667L70.9583 48.6908H82.1858L87.1949 38.3676L88.3318 38.6282V48.5482L100.921 48.5436V22.9816H52.8452V48.4781Z" fill="#6A0DAD"/>
<path d="M52.2551 13.8008V18.4838C52.2551 18.6977 52.5144 18.8042 52.6647 18.652L59.6828 11.5451C59.8321 11.394 59.725 11.1377 59.5126 11.1377H55.1538C55.0942 11.1377 55.0367 11.16 54.9926 11.2001L52.3332 13.6239C52.2835 13.6693 52.2551 13.7335 52.2551 13.8008Z" fill="#6A0DAD"/>
<path d="M65.5697 19.0667H57.1153C56.9094 19.0667 56.7997 18.8239 56.9357 18.6694L63.4906 11.2189C63.5361 11.1673 63.6015 11.1377 63.6703 11.1377H72.1944C72.4009 11.1377 72.5105 11.3817 72.3733 11.536L65.7486 18.9864C65.7032 19.0375 65.6381 19.0667 65.5697 19.0667Z" fill="#6A0DAD"/>
<path d="M76.2928 11.2152L69.4589 18.6657C69.3181 18.8191 69.4269 19.0667 69.6352 19.0667H77.8178C77.886 19.0667 77.9509 19.0376 77.9963 18.9868L84.6487 11.5364C84.7863 11.3822 84.6769 11.1377 84.4702 11.1377H76.4691C76.4021 11.1377 76.3381 11.1658 76.2928 11.2152Z" fill="#6A0DAD"/>
<path d="M82.0681 19.0667H90.3127C90.3817 19.0667 90.4473 19.0369 90.4928 18.985L97.0112 11.5346C97.1466 11.3798 97.0367 11.1377 96.8311 11.1377H88.6758C88.6074 11.1377 88.5422 11.167 88.4968 11.2182L81.8891 18.6686C81.7522 18.823 81.8618 19.0667 82.0681 19.0667Z" fill="#6A0DAD"/>
<path d="M100.091 12.3528L94.1287 18.6631C93.9845 18.8157 94.0927 19.0667 94.3026 19.0667H101.205C101.338 19.0667 101.445 18.9596 101.445 18.8274V13.4199C101.445 13.3547 101.418 13.2924 101.371 13.2472L100.431 12.3446C100.335 12.2525 100.182 12.2562 100.091 12.3528Z" fill="#6A0DAD"/>
<path d="M72.1946 10.5396L72.3255 10.5489C72.9195 10.638 73.2285 11.3264 72.9004 11.8295L72.8209 11.9335L66.1959 19.3835C66.0369 19.5622 65.8088 19.6651 65.5696 19.6651H57.1159C56.3955 19.6651 56.0107 18.8157 56.4861 18.2746L63.0411 10.8235L63.1042 10.7592C63.2578 10.6184 63.4603 10.5396 63.6709 10.5396H72.1946ZM84.4702 10.5396C85.1488 10.5396 85.5277 11.2919 85.1748 11.8307L85.0954 11.9347L78.4423 19.3858C78.2835 19.5634 78.0566 19.6649 77.8183 19.6651H69.6357C68.9071 19.6651 68.5256 18.7989 69.0176 18.2618L75.8518 10.8106L75.9149 10.7499C76.0671 10.6154 76.2637 10.5397 76.4688 10.5396H84.4702ZM96.8312 10.5396C97.5057 10.5396 97.8859 11.2843 97.5404 11.8237L97.4609 11.9288L90.9434 19.3788C90.7843 19.5606 90.554 19.6651 90.3124 19.6651H82.0679C81.346 19.6648 80.9629 18.8125 81.4416 18.2723L88.0492 10.8211L88.1123 10.758C88.2656 10.6184 88.466 10.5397 88.6754 10.5396H96.8312ZM59.5124 10.5396C60.2096 10.5396 60.5826 11.3277 60.1959 11.8622L60.1083 11.965L53.0907 19.0727C52.5973 19.5722 51.7688 19.2755 51.6675 18.6193L51.657 18.4838V13.8007L51.6617 13.713C51.6831 13.5101 51.7781 13.3202 51.9304 13.1814L54.5898 10.758L54.7136 10.6646C54.8451 10.5833 54.9976 10.5396 55.1541 10.5396H59.5124ZM95.1357 18.4686H100.847V13.5728L100.277 13.026L95.1357 18.4686ZM82.866 18.4686H90.15L96.0413 11.736H88.8379L82.866 18.4686ZM70.4513 18.4686H77.6582L83.6687 11.736H76.6265L70.4513 18.4686ZM57.9093 18.4686H65.4095L71.3954 11.736H63.8321L57.9093 18.4686ZM52.8535 13.9584V17.6086L58.6536 11.736H55.2932L52.8535 13.9584ZM102.044 18.8273C102.044 19.2897 101.668 19.6649 101.206 19.6651H94.3026C93.568 19.665 93.1894 18.7865 93.6939 18.2524L99.6564 11.9417L99.785 11.8307C100.06 11.6379 100.426 11.6296 100.71 11.8085L100.845 11.9136L101.785 12.8157L101.895 12.9442C101.991 13.0829 102.044 13.2486 102.044 13.4198V18.8273Z" fill="#6A0DAD"/>
<path d="M38.7634 8.41208V0.646484H48.0926V8.41208H38.7634ZM38.7634 49.8981V10.8095H48.0926V49.8981H38.7634Z" fill="white"/>
<path d="M25.5776 49.8981V4.03418H35.0631V49.8981H25.5776Z" fill="white"/>
<path d="M0.196045 49.8981V4.03418H12.6262C15.9618 4.03418 18.3853 4.8507 19.8967 6.48373C21.4255 8.09939 22.1899 10.7748 22.1899 14.5099V16.5165C22.1899 18.6707 21.799 20.4166 21.0172 21.7543C20.2528 23.092 19.0802 23.9694 17.4993 24.3863C19.5666 24.9075 20.9477 26.1323 21.6426 28.0606C22.3549 29.9716 22.7111 32.3083 22.7111 35.0705C22.7111 38.0412 22.4331 40.6385 21.8772 42.8622C21.3213 45.0859 20.3136 46.8145 18.8543 48.0479C17.395 49.2814 15.319 49.8981 12.6262 49.8981H0.196045ZM9.16036 21.3113H11.0366C11.8879 21.3113 12.4351 20.9813 12.6783 20.3211C12.9216 19.6609 13.0432 18.8705 13.0432 17.9497V13.3373C13.0432 11.8606 12.3917 11.1222 11.0887 11.1222H9.16036V21.3113ZM10.0724 41.8198C12.4525 41.8198 13.6425 40.6906 13.6425 38.4321V32.6991C13.6425 31.3962 13.4427 30.3712 13.0432 29.6242C12.661 28.8598 11.9313 28.4776 10.8542 28.4776H9.16036V41.7677C9.54256 41.8024 9.84658 41.8198 10.0724 41.8198Z" fill="white"/>
</svg>
