<svg width="151" height="50" viewBox="0 0 151 50" fill="none" xmlns="http://www.w3.org/2000/svg">
<path d="M138.659 49.9468C135.879 49.9468 133.664 49.4256 132.014 48.3832C130.363 47.3409 129.182 45.8381 128.47 43.875C127.758 41.9119 127.401 39.5492 127.401 36.7869V21.0733C127.401 17.4424 128.444 14.6975 130.528 12.8387C132.613 10.9624 135.48 10.0243 139.128 10.0243C146.633 10.0243 150.385 13.7073 150.385 21.0733V23.9138C150.385 27.3536 150.351 29.6641 150.281 30.8455H136.731V38.4026C136.731 39.0975 136.774 39.7837 136.861 40.4613C136.948 41.1214 137.139 41.6687 137.434 42.103C137.747 42.5373 138.242 42.7545 138.919 42.7545C139.892 42.7545 140.5 42.3375 140.744 41.5036C140.987 40.6524 141.108 39.5492 141.108 38.1941V34.4416H150.385V36.6566C150.385 39.5753 150.021 42.0248 149.291 44.0053C148.579 45.9684 147.363 47.4538 145.643 48.4614C143.94 49.4516 141.612 49.9468 138.659 49.9468ZM136.678 26.207H141.108V20.943C141.108 19.5358 140.935 18.5282 140.587 17.9202C140.24 17.2948 139.719 16.9821 139.024 16.9821C138.277 16.9821 137.695 17.2774 137.278 17.8681C136.878 18.4587 136.678 19.4837 136.678 20.943V26.207Z" fill="#131516"/>
<path d="M105.98 49.5298V43.8229L115.727 17.842H106.45V10.4412H125.394V16.7996L116.196 42.546H125.473V49.5298H105.98Z" fill="#131516"/>
<path d="M101.707 22.0152V48.7739L87.9224 48.7792V38.26L82.7498 48.9208H70.7644L65.755 38.0486V48.9208L52.436 48.6982V22.0152H101.707Z" fill="#6A0DAD"/>
<path d="M102.306 21.4171V49.3719L87.3245 49.3778V40.8622L83.1252 49.5192H70.381L66.3534 40.7757V49.5297L51.8379 49.2866V21.4171H102.306ZM53.0344 48.11L65.1569 48.3122V38.0486L66.2985 37.7986L71.1475 48.3227H82.375L87.3841 37.9995L88.521 38.2601V48.1801L101.11 48.1755V22.6135H53.0344V48.11Z" fill="#6A0DAD"/>
<path d="M52.4443 13.4326V18.1156C52.4443 18.3295 52.7036 18.436 52.8539 18.2837L59.8721 11.1769C60.0213 11.0257 59.9143 10.7695 59.7018 10.7695H55.343C55.2834 10.7695 55.2259 10.7917 55.1818 10.8319L52.5224 13.2557C52.4727 13.301 52.4443 13.3652 52.4443 13.4326Z" fill="#6A0DAD"/>
<path d="M65.759 18.6985H57.3045C57.0986 18.6985 56.9889 18.4557 57.1249 18.3011L63.6798 10.8507C63.7253 10.7991 63.7907 10.7695 63.8595 10.7695H72.3837C72.5902 10.7695 72.6997 11.0135 72.5625 11.1678L65.9378 18.6182C65.8924 18.6693 65.8273 18.6985 65.759 18.6985Z" fill="#6A0DAD"/>
<path d="M76.482 10.847L69.6481 18.2974C69.5073 18.4509 69.6162 18.6985 69.8244 18.6985H78.007C78.0752 18.6985 78.1401 18.6694 78.1855 18.6186L84.8379 11.1681C84.9756 11.0139 84.8661 10.7695 84.6594 10.7695H76.6583C76.5913 10.7695 76.5273 10.7976 76.482 10.847Z" fill="#6A0DAD"/>
<path d="M82.2574 18.6985H90.5019C90.5709 18.6985 90.6366 18.6687 90.682 18.6168L97.2004 11.1663C97.3358 11.0116 97.2259 10.7695 97.0203 10.7695H88.865C88.7966 10.7695 88.7314 10.7988 88.686 10.85L82.0783 18.3004C81.9414 18.4548 82.051 18.6985 82.2574 18.6985Z" fill="#6A0DAD"/>
<path d="M100.28 11.9846L94.3179 18.2948C94.1737 18.4474 94.2819 18.6985 94.4918 18.6985H101.395C101.527 18.6985 101.634 18.5914 101.634 18.4592V13.0516C101.634 12.9865 101.607 12.9241 101.56 12.879L100.62 11.9763C100.524 11.8843 100.372 11.888 100.28 11.9846Z" fill="#6A0DAD"/>
<path d="M72.3838 10.1713L72.5147 10.1807C73.1087 10.2698 73.4177 10.9582 73.0896 11.4613L73.0101 11.5653L66.3851 19.0152C66.2261 19.194 65.998 19.2968 65.7588 19.2968H57.3051C56.5847 19.2968 56.1999 18.4475 56.6753 17.9064L63.2303 10.4553L63.2934 10.391C63.447 10.2502 63.6495 10.1713 63.8601 10.1713H72.3838ZM84.6595 10.1713C85.338 10.1713 85.7169 10.9237 85.364 11.4625L85.2846 11.5664L78.6315 19.0176C78.4727 19.1951 78.2458 19.2967 78.0075 19.2968H69.825C69.0963 19.2968 68.7148 18.4307 69.2069 17.8935L76.041 10.4424L76.1041 10.3816C76.2563 10.2471 76.4529 10.1714 76.658 10.1713H84.6595ZM97.0204 10.1713C97.6949 10.1713 98.0751 10.9161 97.7296 11.4554L97.6501 11.5606L91.1326 19.0106C90.9736 19.1923 90.7432 19.2968 90.5016 19.2968H82.2571C81.5352 19.2966 81.1521 18.4443 81.6309 17.9041L88.2384 10.4529L88.3015 10.3898C88.4548 10.2502 88.6552 10.1714 88.8647 10.1713H97.0204ZM59.7016 10.1713C60.3988 10.1713 60.7718 10.9595 60.3851 11.494L60.2975 11.5968L53.2799 18.7044C52.7866 19.204 51.958 18.9073 51.8567 18.2511L51.8462 18.1155V13.4324L51.8509 13.3448C51.8723 13.1418 51.9673 12.952 52.1196 12.8132L54.779 10.3898L54.9028 10.2963C55.0343 10.2151 55.1868 10.1713 55.3433 10.1713H59.7016ZM95.325 18.1003H101.036V13.2046L100.466 12.6578L95.325 18.1003ZM83.0552 18.1003H90.3392L96.2305 11.3678H89.0271L83.0552 18.1003ZM70.6405 18.1003H77.8475L83.8579 11.3678H76.8157L70.6405 18.1003ZM58.0985 18.1003H65.5987L71.5846 11.3678H64.0213L58.0985 18.1003ZM53.0427 13.5902V17.2404L58.8428 11.3678H55.4824L53.0427 13.5902ZM102.233 18.4591C102.233 18.9215 101.857 19.2966 101.395 19.2968H94.4919C93.7572 19.2968 93.3786 18.4183 93.8831 17.8842L99.8456 11.5735L99.9742 11.4625C100.249 11.2697 100.615 11.2614 100.9 11.4402L101.034 11.5454L101.975 12.4474L102.084 12.576C102.18 12.7147 102.233 12.8804 102.233 13.0515V18.4591Z" fill="#6A0DAD"/>
<path d="M38.9526 8.04398V0.278381H48.2818V8.04398H38.9526ZM38.9526 49.53V10.4414H48.2818V49.53H38.9526Z" fill="#131516"/>
<path d="M25.7671 49.5298V3.66589H35.2526V49.5298H25.7671Z" fill="#131516"/>
<path d="M0.385254 49.5298V3.66589H12.8154C16.151 3.66589 18.5745 4.48241 20.0859 6.11544C21.6147 7.73111 22.3791 10.4065 22.3791 14.1416V16.1482C22.3791 18.3024 21.9882 20.0484 21.2064 21.386C20.442 22.7237 19.2694 23.6011 17.6885 24.018C19.7558 24.5392 21.1369 25.764 21.8319 27.6923C22.5441 29.6033 22.9003 31.94 22.9003 34.7022C22.9003 37.673 22.6223 40.2702 22.0664 42.4939C21.5105 44.7176 20.5028 46.4462 19.0435 47.6796C17.5842 48.9131 15.5082 49.5298 12.8154 49.5298H0.385254ZM9.34957 20.943H11.2258C12.0771 20.943 12.6243 20.613 12.8675 19.9528C13.1108 19.2926 13.2324 18.5022 13.2324 17.5814V12.969C13.2324 11.4923 12.5809 10.754 11.2779 10.754H9.34957V20.943ZM10.2616 41.4515C12.6417 41.4515 13.8317 40.3223 13.8317 38.0638V32.3309C13.8317 31.0279 13.6319 30.0029 13.2324 29.2559C12.8502 28.4915 12.1205 28.1093 11.0434 28.1093H9.34957V41.3994C9.73177 41.4342 10.0358 41.4515 10.2616 41.4515Z" fill="#131516"/>
</svg>
